<svg width="26" height="26" viewBox="0 0 26 26" fill="none" xmlns="http://www.w3.org/2000/svg">
<path d="M18.3957 0H6.82775C3.06287 0 0 3.06287 0 6.82775V18.3959C0 22.1606 3.06287 25.2234 6.82775 25.2234H18.3959C22.1606 25.2234 25.2234 22.1606 25.2234 18.3959V6.82775C25.2234 3.06287 22.1606 0 18.3957 0V0ZM23.7447 18.3959C23.7447 21.3452 21.3452 23.7447 18.3957 23.7447H6.82775C3.87823 23.7447 1.4787 21.3452 1.4787 18.3959V6.82775C1.4787 3.87823 3.87823 1.4787 6.82775 1.4787H18.3959C21.3452 1.4787 23.7447 3.87823 23.7447 6.82775V18.3959Z" fill="white"/>
<path d="M12.6117 5.71488C8.80869 5.71488 5.71484 8.80873 5.71484 12.6117C5.71484 16.4147 8.80869 19.5086 12.6117 19.5086C16.4147 19.5086 19.5085 16.4147 19.5085 12.6117C19.5085 8.80873 16.4147 5.71488 12.6117 5.71488ZM12.6117 18.0299C9.62425 18.0299 7.19355 15.5993 7.19355 12.6117C7.19355 9.62429 9.62425 7.19359 12.6117 7.19359C15.5993 7.19359 18.0298 9.62429 18.0298 12.6117C18.0298 15.5993 15.5993 18.0299 12.6117 18.0299Z" fill="white"/>
<path d="M19.6735 3.26551C18.5496 3.26551 17.6356 4.17979 17.6356 5.30344C17.6356 6.42729 18.5496 7.34157 19.6735 7.34157C20.7973 7.34157 21.7116 6.42729 21.7116 5.30344C21.7116 4.1796 20.7973 3.26551 19.6735 3.26551ZM19.6735 5.86267C19.3652 5.86267 19.1143 5.61173 19.1143 5.30344C19.1143 4.99496 19.3652 4.74422 19.6735 4.74422C19.982 4.74422 20.2329 4.99496 20.2329 5.30344C20.2329 5.61173 19.982 5.86267 19.6735 5.86267Z" fill="white"/>
</svg>
